<svg width="33" height="33" viewBox="0 0 33 33" fill="none" xmlns="http://www.w3.org/2000/svg">
<g id="Link">
<path id="Vector" d="M21.229 16.18C21.229 14.9213 20.7917 13.844 19.917 12.948C19.0424 12.052 17.965 11.604 16.685 11.604C15.405 11.604 14.3277 12.052 13.453 12.948C12.5784 13.844 12.1304 14.9213 12.109 16.18C12.0877 17.4386 12.5357 18.516 13.453 19.412C14.3704 20.308 15.4477 20.756 16.685 20.756C17.9224 20.756 18.9997 20.308 19.917 19.412C20.8344 18.516 21.2717 17.4386 21.229 16.18ZM23.693 16.18C23.693 18.1213 23.0104 19.7853 21.645 21.172C20.2797 22.5586 18.6264 23.2413 16.685 23.22C14.7437 23.1986 13.0797 22.516 11.693 21.172C10.3064 19.828 9.6237 18.164 9.64503 16.18C9.66636 14.196 10.349 12.532 11.693 11.188C13.037 9.84396 14.701 9.16129 16.685 9.13996C18.669 9.11862 20.3224 9.80129 21.645 11.188C22.9677 12.5746 23.6504 14.2386 23.693 16.18ZM25.645 8.85196C25.645 9.29996 25.485 9.68396 25.165 10.004C24.845 10.324 24.4504 10.484 23.981 10.484C23.5117 10.484 23.1277 10.324 22.829 10.004C22.5304 9.68396 22.3704 9.29996 22.349 8.85196C22.3277 8.40396 22.4877 8.01996 22.829 7.69996C23.1704 7.37996 23.5544 7.21996 23.981 7.21996C24.4077 7.21996 24.8024 7.37996 25.165 7.69996C25.5277 8.01996 25.6877 8.40396 25.645 8.85196ZM16.685 4.91596C16.5997 4.91596 16.141 4.91596 15.309 4.91596H13.421C12.9944 4.91596 12.4184 4.93729 11.693 4.97996C10.9677 5.02262 10.3597 5.07596 9.86903 5.13996C9.37837 5.20396 8.9517 5.32129 8.58903 5.49196C7.9917 5.72663 7.46903 6.06796 7.02103 6.51596C6.57303 6.96396 6.22103 7.48662 5.96503 8.08396C5.83703 8.42529 5.73036 8.85196 5.64503 9.36396C5.5597 9.87596 5.4957 10.4946 5.45303 11.22C5.41036 11.9453 5.3997 12.5106 5.42103 12.916C5.44236 13.3213 5.44236 13.9506 5.42103 14.804C5.3997 15.6573 5.3997 16.116 5.42103 16.18C5.44236 16.244 5.44236 16.7026 5.42103 17.556C5.3997 18.4093 5.3997 19.0386 5.42103 19.444C5.44236 19.8493 5.45303 20.4146 5.45303 21.14C5.45303 21.8653 5.51703 22.484 5.64503 22.996L5.96503 24.276C6.22103 24.8733 6.57303 25.396 7.02103 25.844C7.46903 26.292 7.9917 26.6333 8.58903 26.868C8.93037 26.996 9.35703 27.1133 9.86903 27.22C10.381 27.3266 10.989 27.38 11.693 27.38C12.397 27.38 12.973 27.4013 13.421 27.444C13.869 27.4866 14.4984 27.4866 15.309 27.444C16.1197 27.4013 16.5784 27.4013 16.685 27.444C16.7917 27.4866 17.2397 27.4866 18.029 27.444C18.8184 27.4013 19.4477 27.4013 19.917 27.444C20.3864 27.4866 20.9624 27.4653 21.645 27.38C22.3277 27.2946 22.9464 27.2413 23.501 27.22C24.0557 27.1986 24.4717 27.0813 24.749 26.868C25.3464 26.6333 25.8797 26.292 26.349 25.844C26.8184 25.396 27.1597 24.8733 27.373 24.276C27.501 23.9346 27.6077 23.508 27.693 22.996C27.7784 22.484 27.8424 21.8653 27.885 21.14C27.9277 20.4146 27.9384 19.8493 27.917 19.444C27.8957 19.0386 27.8957 18.4093 27.917 17.556C27.9384 16.7026 27.9384 16.244 27.917 16.18C27.8957 16.116 27.8957 15.6573 27.917 14.804C27.9384 13.9506 27.9384 13.3213 27.917 12.916C27.8957 12.5106 27.885 11.9453 27.885 11.22C27.885 10.4946 27.821 9.87596 27.693 9.36396L27.373 8.08396C27.1384 7.48662 26.797 6.96396 26.349 6.51596C25.901 6.06796 25.3677 5.72663 24.749 5.49196C24.4077 5.36396 23.9917 5.24662 23.501 5.13996C23.0104 5.03329 22.3917 4.97996 21.645 4.97996C20.8984 4.97996 20.3224 4.95862 19.917 4.91596C19.5117 4.87329 18.8824 4.87329 18.029 4.91596C17.1757 4.95862 16.7277 4.95862 16.685 4.91596ZM30.381 16.18C30.381 18.9106 30.349 20.7986 30.285 21.844C30.1784 24.3186 29.4424 26.2386 28.077 27.604C26.7117 28.9693 24.8024 29.7053 22.349 29.812C21.2824 29.876 19.3944 29.908 16.685 29.908C13.9757 29.908 12.0877 29.876 11.021 29.812C8.54636 29.684 6.62636 28.948 5.26103 27.604C3.8957 26.26 3.1597 24.34 3.05303 21.844C2.98903 20.7986 2.95703 18.9106 2.95703 16.18C2.95703 13.4493 2.98903 11.5613 3.05303 10.516C3.1597 8.04129 3.8957 6.12129 5.26103 4.75596C6.62636 3.39062 8.54636 2.65462 11.021 2.54796C12.0664 2.48396 13.9544 2.45196 16.685 2.45196C19.4157 2.45196 21.3037 2.48396 22.349 2.54796C24.8237 2.67596 26.733 3.41196 28.077 4.75596C29.421 6.09996 30.157 8.01996 30.285 10.516C30.349 11.5613 30.381 13.4493 30.381 16.18Z" fill="white" fill-opacity="0.8"/>
</g>
</svg>
