<svg width="33" height="33" viewBox="0 0 33 33" fill="none" xmlns="http://www.w3.org/2000/svg">
<g id="Link">
<path id="Vector" d="M24.8892 2.45196C26.3185 2.45196 27.5345 2.96396 28.5372 3.98796C29.5399 5.01196 30.0412 6.21729 30.0412 7.60396V24.756C30.0412 26.164 29.5399 27.3693 28.5372 28.372C27.5345 29.3746 26.3185 29.8866 24.8892 29.908H21.5612V19.252H25.1132L25.6252 15.124H21.5612V12.468C21.5612 11.8066 21.6999 11.316 21.9772 10.996C22.2545 10.676 22.7985 10.5053 23.6092 10.484L25.7852 10.452V6.77196C25.0385 6.66529 23.9719 6.61196 22.5852 6.61196C20.9852 6.61196 19.6945 7.08129 18.7132 8.01996C17.7319 8.95862 17.2519 10.3133 17.2732 12.084V15.124H13.6892V19.252H17.2732V29.908H7.76919C6.33985 29.908 5.12385 29.396 4.12119 28.372C3.11852 27.348 2.61719 26.1426 2.61719 24.756V7.60396C2.61719 6.19596 3.11852 4.99063 4.12119 3.98796C5.12385 2.98529 6.33985 2.47329 7.76919 2.45196H24.8892Z" fill="white" fill-opacity="0.8"/>
</g>
</svg>
