<svg width="32" height="33" viewBox="0 0 32 33" fill="none" xmlns="http://www.w3.org/2000/svg">
<g id="Link">
<path id="Vector" d="M6.51111 25.428H10.6391V13.044H6.51111V25.428ZM10.9271 9.20396C10.9058 8.58529 10.6818 8.07329 10.2551 7.66796C9.82844 7.26262 9.28444 7.05996 8.62311 7.05996C7.96178 7.05996 7.39644 7.26262 6.92711 7.66796C6.45778 8.07329 6.22844 8.58529 6.23911 9.20396C6.24978 9.82262 6.46844 10.3346 6.89511 10.74C7.32178 11.1453 7.87644 11.348 8.55911 11.348C9.26311 11.348 9.82844 11.1453 10.2551 10.74C10.6818 10.3346 10.9058 9.82262 10.9271 9.20396ZM21.3591 25.428H25.4871V18.324C25.4871 16.4893 25.0498 15.1026 24.1751 14.164C23.3004 13.2253 22.1591 12.756 20.7511 12.756C19.1298 12.756 17.8818 13.4493 17.0071 14.836H17.0391V13.044H12.9111C12.9538 13.8333 12.9538 17.9613 12.9111 25.428H17.0391V18.484C17.0391 18.036 17.0818 17.7053 17.1671 17.492C17.3378 17.0866 17.6044 16.7346 17.9671 16.436C18.3298 16.1373 18.7671 15.988 19.2791 15.988C20.6658 15.988 21.3591 16.9266 21.3591 18.804V25.428ZM29.7111 7.60396V24.756C29.7111 26.164 29.2098 27.3693 28.2071 28.372C27.2044 29.3746 25.9884 29.8866 24.5591 29.908H7.43911C6.00978 29.908 4.79378 29.396 3.79111 28.372C2.78844 27.348 2.28711 26.1426 2.28711 24.756V7.60396C2.28711 6.19596 2.78844 4.99063 3.79111 3.98796C4.79378 2.98529 6.00978 2.47329 7.43911 2.45196H24.5591C25.9884 2.45196 27.2044 2.96396 28.2071 3.98796C29.2098 5.01196 29.7111 6.21729 29.7111 7.60396Z" fill="white" fill-opacity="0.8"/>
</g>
</svg>
